<?xml version="1.0" encoding="UTF-8" standalone="no"?>
<!-- Created with Inkscape (http://www.inkscape.org/) -->

<svg
   xmlns:dc="http://purl.org/dc/elements/1.1/"
   xmlns:cc="http://creativecommons.org/ns#"
   xmlns:rdf="http://www.w3.org/1999/02/22-rdf-syntax-ns#"
   xmlns:svg="http://www.w3.org/2000/svg"
   xmlns="http://www.w3.org/2000/svg"
   xmlns:sodipodi="http://sodipodi.sourceforge.net/DTD/sodipodi-0.dtd"
   xmlns:inkscape="http://www.inkscape.org/namespaces/inkscape"
   version="1.1"
   id="svg64"
   xml:space="preserve"
   width="200mm"
   height="200mm"
   viewBox="0 0 755.90545 755.90551"
   sodipodi:docname="logo-mono.svg"
   inkscape:version="0.92.5 (2060ec1f9f, 2020-04-08)"><metadata
     id="metadata70"><rdf:RDF><cc:Work
         rdf:about=""><dc:format>image/svg+xml</dc:format><dc:type
           rdf:resource="http://purl.org/dc/dcmitype/StillImage" /><dc:title></dc:title></cc:Work></rdf:RDF></metadata><defs
     id="defs68"><clipPath
       clipPathUnits="userSpaceOnUse"
       id="clipPath80"><path
         d="M 0,600 H 800 V 0 H 0 Z"
         id="path78"
         inkscape:connector-curvature="0" /></clipPath></defs><sodipodi:namedview
     pagecolor="#ffffff"
     bordercolor="#666666"
     borderopacity="1"
     objecttolerance="10"
     gridtolerance="10"
     guidetolerance="10"
     inkscape:pageopacity="0"
     inkscape:pageshadow="2"
     inkscape:window-width="2181"
     inkscape:window-height="1126"
     id="namedview66"
     showgrid="false"
     inkscape:zoom="0.875"
     inkscape:cx="564.00919"
     inkscape:cy="470.86603"
     inkscape:window-x="376"
     inkscape:window-y="334"
     inkscape:window-maximized="0"
     inkscape:current-layer="g76"
     units="mm"
     height="200mm" /><g
     id="g72"
     inkscape:groupmode="layer"
     inkscape:label="inlets-oss"
     transform="matrix(1.3333333,0,0,-1.3333333,0,755.90551)"><g
       id="g74"><g
         id="g76"
         clip-path="url(#clipPath80)"><g
           id="g82"
           transform="translate(428.4551,305.5469)"
           style="fill:#ffffff"><path
             d="m 0,0 c -9.471,0.006 -17.192,-7.675 -17.213,-17.118 -0.014,-9.504 7.581,-17.192 17.057,-17.273 9.619,-0.074 17.331,7.593 17.348,17.26 C 17.208,-7.715 9.47,0 0,0 M 95.98,35.679 C 96.034,45.122 88.359,52.858 78.889,52.906 69.411,52.959 61.69,45.358 61.588,35.889 61.488,26.432 69.114,18.622 78.544,18.521 88.177,18.412 95.929,26.046 95.98,35.679 M 95.408,-69.413 c -0.065,9.49 -7.739,17.098 -17.24,17.084 -9.609,-0.021 -17.271,-7.81 -17.165,-17.443 0.104,-9.436 7.921,-17.057 17.382,-16.942 9.493,0.108 17.084,7.824 17.023,17.301 M 17.605,45.433 h 34.317 2.723 c 7.803,13.297 18.7,18.581 30.93,15.14 C 97.063,57.342 104.808,47.005 104.593,35.171 104.386,23.675 96.315,13.555 85.102,10.676 75.502,8.21 61.897,11.157 54.775,25.882 H -227.997 C -236.67,16.813 -242.231,6.056 -244.34,-6.713 H -23.783 C -15.672,6.239 -4.918,11.17 7.335,7.513 18.579,4.159 26.119,-6.273 25.801,-18.019 25.497,-29.453 17.192,-39.614 6.039,-42.31 c -9.881,-2.398 -23.522,1.03 -30.324,15.824 h -220.237 c 1.907,-13.196 7.531,-24.325 16.545,-33.823 H 53.832 c 8.407,13.893 18.751,19.103 31.063,15.695 11.39,-3.156 19.181,-13.358 19.129,-25.05 C 103.977,-81.186 96.129,-91.3 84.896,-94.437 75.23,-97.139 61.69,-94.118 54.455,-79.953 H -99.769 c -38.961,-50.961 -111.531,-55.548 -156.489,-12.809 -43.416,41.267 -42.933,111.48 0.718,151.873 45.283,41.91 117.05,36.992 155.752,-13.556 h 92.817 c -9.717,27.313 -24.888,50.907 -45.507,70.945 -31.626,30.74 -69.481,48.576 -113.391,52.605 -98.019,8.984 -177.578,-55.702 -199.309,-138.425 -22.746,-86.579 19.514,-177.709 100.165,-216.152 79.328,-37.805 179.988,-17.232 236.013,62.876 h 26.895 c -32.85,-60.274 -112.37,-115.707 -210.063,-102.511 -102.51,13.845 -179.658,99.802 -182.213,202.82 -2.595,104.653 71.161,192.03 169.349,211.431 106.859,21.107 210.247,-41.477 242.637,-143.711"
             style="fill:#ffffff;fill-opacity:1;fill-rule:evenodd;stroke:none"
             id="path84"
             inkscape:connector-curvature="0" /></g></g></g></g></svg>